{"title":"All Round To Mrs Browns S02E01. revittony","magnet":"magnet:?xt=urn:btih:39fecba02ccce6039b05f6e270630b758325bd07&dn=All+Round+To+Mrs+Browns+S02E01.+revittony&tr=udp%3A%2F%2Ftracker.leechers-paradise.org%3A6969&tr=udp%3A%2F%2Fzer0day.ch%3A1337&tr=udp%3A%2F%2Fopen.demonii.com%3A1337&tr=udp%3A%2F%2Ftracker.coppersurfer.tk%3A6969&tr=udp%3A%2F%2Fexodus.desync.com%3A6969","uploader":"revittony1","categoryP":"video","categoryS":"tv_shows","size":"750699319","seeders":"0","leechers":"0","description":"\r\nFormat : MPEG-4 \r\nFormat profile : Base Media \r\nCodec ID : isom (isom/iso2/avc1/mp41) \r\nOverall bit rate : 1 700 kb/s \r\n\r\n\r\n\r\nVideo \r\nID : 1 \r\nFormat : AVC \r\nFormat/Info : Advanced Video Codec \r\nFormat profile : Main@L3.1 \r\nFormat settings : CABAC / 4 Ref Frames \r\nFormat settings, CABAC : Yes \r\nFormat settings, RefFrames : 4 frames \r\nFormat settings, GOP : M=8, N=96 \r\nCodec ID : avc1 \r\nCodec ID/Info : Advanced Video Coding \r\nDuration : 58 min 51 s \r\nBit rate : 1 602 kb/s \r\nWidth : 960 pixels \r\nHeight : 540 pixels \r\nDisplay aspect ratio : 16:9 \r\nFrame rate mode : Constant \r\nFrame rate : 25.000 FPS \r\nColor space : YUV \r\nChroma subsampling : 4:2:0 \r\nBit depth : 8 bits \r\nScan type : Progressive \r\nBits/(Pixel*Frame) : 0.124 \r\nStream size : 674 MiB (94%) \r\nColor range : Limited \r\nColor primaries : BT.709 \r\nTransfer characteristics : BT.709 \r\nMatrix coefficients : BT.709 \r\n\r\nAudio \r\nID : 2 \r\nFormat : AAC \r\nFormat/Info : Advanced Audio Codec \r\nFormat profile : HE-AAC / LC \r\nFormat settings : Implicit \r\nCodec ID : mp4a-40-2 \r\nDuration : 58 min 51 s \r\nBit rate mode : Constant \r\nBit rate : 96.0 kb/s \r\nChannel(s) : 2 channels \r\nChannel positions : Front: L R \r\nSampling rate : 48.0 kHz / 24.0 kHz \r\nFrame rate : 23.438 FPS (1024 SPF) \r\nCompression mode : Lossy \r\nStream size : 39.9 MiB (6%) \r\nLanguage : English \r\nDefault : Yes \r\nAlternate group : 1","last_updated":"2018-06-15T12:01:13.349Z","parsed":{"xt":"urn:btih:39fecba02ccce6039b05f6e270630b758325bd07","dn":"All Round To Mrs Browns S02E01. revittony","tr":["udp://exodus.desync.com:6969","udp://open.demonii.com:1337","udp://tracker.coppersurfer.tk:6969","udp://tracker.leechers-paradise.org:6969","udp://zer0day.ch:1337"],"infoHash":"39fecba02ccce6039b05f6e270630b758325bd07","infoHashBuffer":{"type":"Buffer","data":[57,254,203,160,44,204,230,3,155,5,246,226,112,99,11,117,131,37,189,7]},"name":"All Round To Mrs Browns S02E01. revittony","announce":["udp://exodus.desync.com:6969","udp://open.demonii.com:1337","udp://tracker.coppersurfer.tk:6969","udp://tracker.leechers-paradise.org:6969","udp://zer0day.ch:1337"],"urlList":[]}}